<svg width="17" height="17" viewBox="0 0 17 17" fill="none" xmlns="http://www.w3.org/2000/svg">
<g id="Group">
<path id="Vector" d="M16.3704 9.20776C16.241 9.20776 16.1113 9.16035 16.0095 9.06467L8.47021 1.96958L0.930957 9.06467C0.71888 9.26411 0.385667 9.25375 0.186406 9.0422C-0.0130306 8.8303 -0.00284804 8.49709 0.208878 8.29765L8.10909 0.862852C8.31186 0.672018 8.62822 0.672018 8.83099 0.862852L16.7312 8.29765C16.9431 8.49691 16.9531 8.8303 16.7537 9.0422C16.6503 9.1521 16.5105 9.20776 16.3704 9.20776ZM15.0825 15.8471V9.17212C15.0825 9.025 15.0209 8.88455 14.9127 8.78466L8.82713 3.17779C8.62558 2.99205 8.31502 2.99205 8.11348 3.17779L2.02768 8.78466C1.91936 8.88437 1.85791 9.02482 1.85791 9.17212V15.8471C1.85791 16.138 2.09369 16.3738 2.3846 16.3738H14.5558C14.8467 16.3738 15.0825 16.138 15.0825 15.8471ZM2.91128 9.40298L8.47021 4.28136L14.0292 9.40298V15.3204H2.91128V9.40298Z" fill="white"/>
</g>
</svg>
