<svg width="49" height="40" viewBox="0 0 49 40" fill="none" xmlns="http://www.w3.org/2000/svg">
<g id="Group">
<g id="Group_2">
<g id="Group_3">
<path id="Vector" d="M34.5983 8.77328L10.7321 0.0626031C10.1782 -0.1388 9.57401 0.163305 9.3726 0.717163L7.10682 6.96065C7.00612 7.21241 7.00612 7.51451 7.15717 7.76626C7.25787 8.01802 7.50963 8.21942 7.76138 8.32012C8.9698 8.77328 9.92646 9.62924 10.4803 10.7873C11.0342 11.9454 11.0845 13.2545 10.6314 14.4629C10.1782 15.6713 9.32225 16.628 8.16419 17.1818C7.00612 17.7357 5.697 17.7861 4.48858 17.3329C4.23683 17.2322 3.93473 17.2322 3.68297 17.3833C3.43122 17.484 3.22982 17.7357 3.12911 17.9875L0.812981 24.1302C0.712279 24.382 0.712279 24.6841 0.863331 24.9359C1.01438 25.1876 1.21579 25.389 1.46754 25.4897L25.3338 34.15L34.5983 8.77328Z" fill="#127D77"/>
<path id="Vector_2" d="M48.4953 14.1627C48.3946 13.911 48.1429 13.7096 47.8911 13.6089L37.2671 9.73187L28.0026 35.159L38.6266 39.036C38.7273 39.0863 38.8783 39.0863 38.979 39.0863C39.4322 39.0863 39.835 38.8346 39.986 38.3814L42.2518 32.1379C42.3525 31.8862 42.3525 31.5841 42.2015 31.3323C42.1008 31.0806 41.849 30.8792 41.5973 30.7785C40.3888 30.3253 39.4322 29.4694 38.8783 28.3113C38.3245 27.1532 38.2741 25.8441 38.7273 24.6357C39.1804 23.4273 40.0364 22.4706 41.1945 21.9167C42.3525 21.3629 43.6616 21.3125 44.8701 21.7657C45.4239 21.9671 46.0281 21.665 46.2295 21.1111L48.4953 14.8676C48.6464 14.7166 48.596 14.4145 48.4953 14.1627Z" fill="#127D77"/>
</g>
</g>
</g>
</svg>
