<svg width="42" height="43" viewBox="0 0 42 43" fill="none" xmlns="http://www.w3.org/2000/svg">
<g id="Mask Group">
<mask id="mask0_2446_8094" style="mask-type:alpha" maskUnits="userSpaceOnUse" x="0" y="0" width="42" height="43">
<circle id="Ellipse" cx="20.881" cy="21.7201" r="20.881" fill="#D9D9D9"/>
</mask>
<g mask="url(#mask0_2446_8094)">
<g id="Vector">
<path d="M20.881 42.7425C32.4132 42.7425 41.762 33.3305 41.762 21.7201C41.762 10.1098 32.4132 0.697754 20.881 0.697754C9.34871 0.697754 -2.05934e-05 10.1098 -2.05934e-05 21.7201C-2.05934e-05 33.3305 9.34871 42.7425 20.881 42.7425Z" fill="black"/>
<path d="M41.7562 0.697754H-3.00808e-05V42.7367H41.7562V0.697754Z" fill="url(#paint0_linear_2446_8094)"/>
<path d="M31.8779 12.5239L31.3647 13.0406C32.1893 13.2845 32.7314 13.6793 32.7314 14.1263C32.7314 14.8636 31.2724 15.4616 29.479 15.4616C27.6856 15.4616 26.2266 14.8636 26.2266 14.1263C26.2266 13.6734 26.7687 13.2787 27.6048 13.0348L27.0916 12.5181C26.1344 12.8839 25.5116 13.4702 25.5116 14.1263C25.5116 15.241 27.2877 16.1409 29.479 16.1409C31.6703 16.1409 33.4465 15.241 33.4465 14.1263C33.4465 13.4702 32.8352 12.8897 31.8837 12.5239H31.8779Z" fill="white"/>
<path d="M33.0024 5.76031C33.0024 5.76031 31.8318 3.89668 29.4848 3.94313C27.1377 3.89668 25.9671 5.76031 25.9671 5.76031C24.5831 7.60651 25.7595 9.77784 25.7595 9.77784C26.7341 11.6821 28.366 13.3425 28.366 13.3425C28.689 13.656 29.0696 13.9057 29.4848 13.9173C29.9 13.9057 30.2806 13.656 30.6035 13.3425C30.6035 13.3425 32.2355 11.6821 33.21 9.77784C33.21 9.77784 34.3922 7.60651 33.0024 5.76031ZM29.4848 9.67914C28.6025 9.67914 27.8816 8.95924 27.8816 8.06516C27.8816 7.17689 28.5967 6.45118 29.4848 6.45118C30.3671 6.45118 31.0879 7.17109 31.0879 8.06516C31.0879 8.95924 30.3728 9.67914 29.4848 9.67914Z" fill="white"/>
<path d="M25.2868 13.5457C25.1599 13.8012 25.1196 14.0857 25.1657 14.3643C25.2003 14.5733 25.2868 14.7707 25.4079 14.9391C24.5372 15.0204 23.6145 15.1423 22.6342 15.3107C21.5962 15.4906 20.6274 15.6996 19.7393 15.9261C19.7393 15.9261 17.721 16.4137 15.9449 17.1162C15.57 17.2614 15.2125 17.4529 14.8838 17.691C14.7108 17.8187 14.5493 17.9522 14.3936 18.1032C14.3129 18.2077 13.9611 18.6954 14.1053 19.2121C14.1226 19.2759 14.1918 19.4443 14.3936 19.6649C14.6358 19.9378 15.0856 20.1584 16.8791 20.3616C17.1155 20.3906 17.3116 20.408 17.6922 20.4429C17.992 20.4719 18.5168 20.5183 19.1223 20.5648C19.9527 20.6287 20.5697 20.6577 20.7369 20.6693C21.9479 20.7332 23.7068 20.9538 24.9927 21.1221C27.2186 21.4124 29.6291 21.8246 30.3961 22.3239C30.3961 22.3239 35.6841 24.1585 32.8353 28.4141C32.8353 28.4141 31.78 30.6318 26.0538 32.7567C26.0538 32.7567 19.624 34.8584 14.2495 35.6538C12.5195 35.9324 10.7491 36.1937 8.93264 36.4375C5.85326 36.8439 2.87767 37.1632 -0.00564575 37.3955V30.2951C2.38174 30.208 4.8441 30.0629 7.38718 29.8655C11.3085 29.552 15.0395 29.1108 18.5629 28.594C18.5629 28.594 24.0816 28.0309 27.1667 26.2311C27.1667 26.2311 28.8391 25.1106 26.4055 24.0424C26.4055 24.0424 25.2926 23.4792 19.7105 22.98C19.7105 22.98 13.2518 22.8348 11.4584 20.8493C11.4584 20.8493 10.8875 20.3035 10.8702 19.4733C10.8472 18.2077 12.1735 17.2846 13.0442 16.6808C13.9438 16.0596 14.7339 15.7809 16.066 15.3107C16.8964 15.0204 17.7383 14.7707 18.5918 14.5733C20.0103 14.225 21.106 14.0566 22.0575 13.9173C22.911 13.7954 24.0009 13.656 25.2753 13.5515L25.2868 13.5457Z" fill="white"/>
</g>
</g>
</g>
<defs>
<linearGradient id="paint0_linear_2446_8094" x1="20.9503" y1="1.2784" x2="20.8041" y2="42.1038" gradientUnits="userSpaceOnUse">
<stop stop-color="#139A89"/>
<stop offset="1" stop-color="#162154"/>
</linearGradient>
</defs>
</svg>
