<svg width="37" height="36" viewBox="0 0 37 36" fill="none" xmlns="http://www.w3.org/2000/svg">
<g id="SVG">
<path id="Vector" fill-rule="evenodd" clip-rule="evenodd" d="M6.703 7.70928C5.57256 8.16907 4.83331 9.26782 4.83331 10.4882V31.5032C4.83331 33.1601 6.17646 34.5032 7.83331 34.5032H28.8333C30.4902 34.5032 31.8333 33.1601 31.8333 31.5032V10.5032C31.8333 8.84637 30.4902 7.50322 28.8333 7.50322H27.3333V6.00633C27.3333 2.90884 24.0611 0.648929 21.1379 1.83795L6.703 7.70928ZM22.2681 4.61686L15.172 7.50322H24.3333V6.00633C24.3333 4.97383 23.2425 4.22053 22.2681 4.61686ZM14.9583 16.8563C14.9583 14.9923 16.4694 13.4812 18.3333 13.4812C20.1972 13.4812 21.7083 14.9923 21.7083 16.8563C21.7083 18.7202 20.1972 20.2313 18.3333 20.2313C16.4694 20.2313 14.9583 18.7202 14.9583 16.8563ZM12.9634 23.0735C14.6566 22.3635 16.4963 21.9663 18.3341 21.9665C20.1713 21.9666 22.0103 22.364 23.703 23.0736C24.539 23.424 25.083 24.242 25.083 25.1484L25.0832 27.0249C25.0835 27.8534 24.4118 28.5252 23.5835 28.5252C22.8333 28.5252 13.8333 28.5251 13.0838 28.5251C12.2556 28.5249 11.584 27.8535 11.5837 27.0254L11.5834 25.1487C11.5833 24.2421 12.1273 23.424 12.9634 23.0735Z" fill="#127D77"/>
</g>
</svg>
