<svg width="36" height="36" viewBox="0 0 36 36" fill="none" xmlns="http://www.w3.org/2000/svg">
<g id="SVG">
<path id="Vector" fill-rule="evenodd" clip-rule="evenodd" d="M34.5 17.9985C34.5 27.111 27.111 34.497 17.9985 34.497C8.88603 34.497 1.5 27.111 1.5 17.9985C1.5 8.88898 8.88603 1.5 17.9985 1.5C27.111 1.5 34.5 8.88898 34.5 17.9985ZM16.6125 7.49853C16.6125 6.73224 17.2337 6.11103 18 6.11103C18.7663 6.11103 19.3875 6.73224 19.3875 7.49853V17.9985C19.3875 18.4216 19.1944 18.8216 18.8632 19.0848L11.4929 24.9423C10.893 25.4192 10.0202 25.3193 9.5434 24.7194C9.06663 24.1194 9.16646 23.2465 9.76637 22.7698L16.6125 17.3289V7.49853Z" fill="#127D77"/>
</g>
</svg>
