<svg width="37" height="36" viewBox="0 0 37 36" fill="none" xmlns="http://www.w3.org/2000/svg">
<g id="SVG">
<path id="Vector" fill-rule="evenodd" clip-rule="evenodd" d="M11.5833 6C9.23577 6 6.90913 6.5538 4.61557 7.62691C3.81145 8.00314 3.33331 8.80643 3.33331 9.65166V24.8521C3.33331 26.563 5.09011 27.5409 6.51729 26.9429C8.22333 26.2278 9.90882 25.8804 11.5833 25.8804C13.7813 25.8804 15.6353 26.6059 17.7722 27.4606C20.1233 28.4013 22.5078 29.2554 25.0752 29.2554C27.423 29.2554 29.7518 28.7016 32.0493 27.6288C32.8544 27.253 33.3333 26.4493 33.3333 25.6033V10.3981C33.3333 8.69214 31.5833 7.71054 30.1548 8.3067C28.4291 9.02682 26.7419 9.375 25.0833 9.375C22.881 9.375 21.0269 8.64939 18.8904 7.79478C16.5378 6.85356 14.1522 6 11.5833 6ZM22.8333 17.6277C22.8333 20.113 20.8187 22.1277 18.3333 22.1277C15.848 22.1277 13.8333 20.113 13.8333 17.6277C13.8333 15.1425 15.848 13.1277 18.3333 13.1277C20.8187 13.1277 22.8333 15.1425 22.8333 17.6277Z" fill="#127D77"/>
</g>
</svg>
