<svg width="1440" height="1230" viewBox="0 0 1440 1230" fill="none" xmlns="http://www.w3.org/2000/svg">
<g opacity="0.8">
<path fill-rule="evenodd" clip-rule="evenodd" d="M1474.44 123L1486.95 145.793C1519.4 204.91 1542.42 276.621 1556.26 350.129L1561.07 375.68L1509.97 385.302L1505.16 359.751C1492.04 290.07 1470.51 223.899 1441.37 170.813L1428.86 148.02L1474.44 123ZM1238.76 524.298L1257.31 542.519C1270.94 555.905 1283.49 566.34 1294.19 573.529C1305.46 581.102 1312.5 583.587 1315.43 583.992L1308.31 635.503C1293.65 633.478 1278.71 625.774 1265.19 616.691C1251.09 607.222 1236.05 594.532 1220.87 579.613L1202.32 561.391L1238.76 524.298ZM509.581 602.221L528.784 619.75C570.12 657.481 594.776 706.762 608.307 758.685L614.864 783.845L564.544 796.958L557.988 771.798C546.269 726.829 525.77 687.404 493.727 658.156L474.524 640.627L509.581 602.221ZM80.204 684.08L59.6214 699.965C11.1351 737.387 -31.9181 782.629 -69.0138 830.129L-85.0168 850.621L-126 818.615L-109.997 798.124C-70.8405 747.984 -24.7876 699.425 27.8501 658.8L48.4328 642.914L80.204 684.08ZM535.964 818.542L561.012 825.513C609.415 838.983 658.551 859.81 707.077 883.03L730.53 894.252L708.085 941.159L684.632 929.936C663.516 919.832 642.68 910.389 622.161 901.937L621.548 913.003C620.089 939.367 617.054 965.015 613.011 989.059L612.569 991.687L611.603 994.171C600.859 1021.8 588.433 1047.54 574.601 1071.08L561.431 1093.5L516.596 1067.16L529.766 1044.74C541.706 1024.42 552.605 1002.03 562.169 977.801C565.699 956.266 568.337 933.452 569.628 910.129L571.065 884.168L575.634 884.421C566.031 881.185 556.508 878.235 547.07 875.609L522.022 868.638L535.964 818.542ZM1291.01 1047.16L1267.5 1058.26C1246.48 1068.2 1224.69 1077.07 1202.21 1085.2C1174.99 1095.04 1146.85 1099.16 1118.29 1098.98L1092.29 1098.8L1092.63 1046.8L1118.63 1046.98C1141.91 1047.13 1163.84 1043.78 1184.53 1036.3C1205.74 1028.62 1225.99 1020.37 1245.29 1011.25L1268.79 1000.14L1291.01 1047.16ZM478.097 1184.37L455.824 1197.79C428.516 1214.23 399.309 1224.82 369.177 1228.1C343.928 1230.84 320.693 1229.29 299.73 1223.94L274.537 1217.51L287.395 1167.13L312.588 1173.56C326.895 1177.21 343.823 1178.54 363.565 1176.4C385.213 1174.05 407.26 1166.33 428.999 1153.24L451.272 1139.83L478.097 1184.37Z" fill="#0D1C3B"/>
<path fill-rule="evenodd" clip-rule="evenodd" d="M1198.22 18.6816C1238.98 1.4638 1277.93 -3.60405 1314.44 2.45316L1340.09 6.70859L1331.58 58.0074L1305.93 53.7519C1280.42 49.5194 1251.43 52.6538 1218.45 66.583C1189.96 78.6199 1168.04 92.9845 1151.39 108.717L1132.49 126.573L1096.78 88.7745L1115.68 70.919C1137.47 50.3317 1164.85 32.7767 1198.22 18.6816ZM1100.98 223.375L1103.21 249.279C1107.6 300.308 1127.77 355.186 1155.75 406.385L1168.22 429.2L1122.59 454.138L1110.12 431.323C1080.06 376.331 1056.62 314.351 1051.4 253.736L1049.17 227.832L1100.98 223.375ZM1571.73 537.772L1570.21 563.728C1567.95 602.121 1562.8 638.659 1554.55 671.475C1548.58 695.194 1542.1 717.601 1535.11 738.786L1526.96 763.475L1477.58 747.171L1485.73 722.482C1492.3 702.581 1498.44 681.387 1504.12 658.79C1511.43 629.731 1516.19 596.502 1518.3 560.68L1519.82 534.724L1571.73 537.772ZM374.289 605.977C353.669 603.092 330.799 602.013 305.458 603.108C275.102 604.418 245.893 609.344 217.84 617.287L192.823 624.371L178.656 574.338L203.673 567.254C235.438 558.26 268.646 552.648 303.214 551.156C331.364 549.941 357.416 551.11 381.492 554.478L407.241 558.08L400.038 609.578L374.289 605.977ZM509.046 602.106L528.249 619.634C569.585 657.365 594.241 706.647 607.772 758.569L614.329 783.729L564.009 796.842L557.453 771.682C545.734 726.713 525.235 687.288 493.192 658.04L473.989 640.512L509.046 602.106ZM433.62 860.719L408.191 866.137C386.756 870.703 366.042 878.793 346.062 891.213C330.272 901.029 316.323 911.942 304.143 923.724L285.457 941.802L249.301 904.429L267.988 886.351C282.908 871.917 299.793 858.748 318.61 847.05C343.831 831.372 370.19 821.066 397.356 815.278L422.785 809.86L433.62 860.719ZM535.429 818.426L560.477 825.397C608.88 838.868 658.016 859.694 706.542 882.914L729.995 894.137L707.55 941.043L684.097 929.82C662.981 919.717 642.145 910.273 621.626 901.821L621.014 912.887C619.554 939.251 616.519 964.9 612.476 988.943L612.034 991.571L611.068 994.055C600.324 1021.68 587.898 1047.42 574.066 1070.96L560.896 1093.38L516.061 1067.04L529.231 1044.62C541.171 1024.3 552.07 1001.92 561.634 977.685C565.164 956.15 567.802 933.337 569.093 910.013L570.53 884.053L575.099 884.306C565.496 881.07 555.973 878.12 546.535 875.493L521.487 868.522L535.429 818.426ZM1490.9 845.884L1477.71 868.288C1451.38 913 1421.12 949.557 1387.09 979.972L1367.7 997.298L1333.05 958.528L1352.44 941.201C1382.32 914.491 1409.2 882.151 1432.9 841.903L1446.09 819.499L1490.9 845.884ZM-156.914 962.759L-168.771 985.898C-184.625 1016.84 -197.179 1045.45 -206.328 1069.78L-255 1051.48C-245.099 1025.15 -231.725 994.725 -215.049 962.183L-203.191 939.045L-156.914 962.759ZM820.158 940.386L843.311 952.214C890.043 976.088 935.463 998.313 979.293 1015.29L1003.54 1024.68L984.754 1073.17L960.509 1063.78C914.033 1045.78 866.615 1022.51 819.654 998.521L796.501 986.693L820.158 940.386ZM256.876 986.76L248.707 1011.44C243.246 1027.94 239.754 1045.16 238.241 1062.85C236.799 1079.71 238.885 1096.47 244.261 1111.65L252.939 1136.16L203.921 1153.52L195.243 1129.01C187.29 1106.55 184.384 1082.34 186.431 1058.42C188.279 1036.8 192.562 1015.58 199.34 995.103L207.51 970.42L256.876 986.76Z" fill="#127D77"/>
</g>
</svg>
