<svg width="20" height="18" viewBox="0 0 20 18" fill="none" xmlns="http://www.w3.org/2000/svg">
<g id="Vector">
<path d="M10.2869 11.0523L13.4722 7.62353C13.8374 7.23805 13.7968 6.64968 13.4316 6.28449C13.0461 5.91929 12.4578 5.95987 12.0926 6.32507L9.59708 9.02344L8.46092 7.80613C8.09572 7.42065 7.50736 7.40036 7.12187 7.76555C6.73639 8.13075 6.7161 8.71911 7.0813 9.1046L8.90726 11.0726C9.27246 11.4581 9.92169 11.4581 10.2869 11.0523Z" fill="white"/>
<path d="M18.3414 6.34535H17.7125C17.1038 2.77457 13.9794 0.0559082 10.2463 0.0559082C6.51322 0.0559082 3.40907 2.77457 2.78013 6.34535H2.17147C1.31935 6.34535 0.609253 7.05545 0.609253 7.90757V10.5248C0.609253 10.9509 0.771561 11.3363 1.07589 11.6407C1.38022 11.9247 1.7657 12.087 2.17147 12.087H3.57138C3.97715 12.087 4.30177 11.7624 4.30177 11.3566V7.62353C4.30177 4.35708 6.95956 1.69928 10.226 1.69928C13.4925 1.69928 16.1503 4.35708 16.1503 7.62353V12.716C16.1503 14.055 15.0547 15.1506 13.7156 15.1506H12.3766C12.2752 14.7245 11.91 14.4202 11.4433 14.4202H9.029C8.4812 14.4202 8.05514 14.8665 8.05514 15.394V16.0636C8.05514 16.6114 8.50149 17.0374 9.029 17.0374H11.4839C11.9303 17.0374 12.2954 16.7128 12.4172 16.307H13.7562C15.7242 16.307 17.3473 14.7042 17.3473 12.716V12.0667H18.3414C18.7472 12.0667 19.153 11.9044 19.437 11.6204C19.7413 11.316 19.9037 10.9306 19.9037 10.5045V7.90757C19.9037 7.05545 19.2138 6.36564 18.3414 6.34535Z" fill="white"/>
</g>
</svg>
