<svg width="16" height="17" viewBox="0 0 16 17" fill="none" xmlns="http://www.w3.org/2000/svg">
<path id="Vector" d="M8.57542 10.4331H8.67542V10.3331V8.59997C9.70769 8.38666 10.4836 7.4726 10.4836 6.37712C10.4836 5.12346 9.4674 4.10717 8.21378 4.10717C6.96017 4.10717 5.94393 5.12345 5.94393 6.37707V6.73871V6.83871H6.04393H6.76721H6.86721V6.73871V6.37707C6.86721 5.63335 7.4701 5.03046 8.21378 5.03046C8.95747 5.03046 9.56035 5.63335 9.56035 6.37712C9.56035 7.12081 8.95747 7.72369 8.21378 7.72369H7.85214H7.75214V7.82369V10.3331V10.4331H7.85214H8.57542ZM8.20374 16.2414C12.4534 16.2414 15.8982 12.7966 15.8982 8.54688C15.8982 4.29715 12.4534 0.852393 8.20374 0.852393C3.95436 0.852393 0.509253 4.29729 0.509253 8.54688C0.509253 12.7965 3.95436 16.2414 8.20374 16.2414ZM8.20374 1.70646C11.9817 1.70646 15.0442 4.76885 15.0442 8.54688C15.0442 12.3249 11.9817 15.3873 8.20374 15.3873C4.42604 15.3873 1.36332 12.3248 1.36332 8.54688C1.36332 4.76899 4.42604 1.70646 8.20374 1.70646ZM7.3905 12.1633C7.3905 12.618 7.75909 12.9866 8.21378 12.9866C8.66847 12.9866 9.03707 12.618 9.03707 12.1633C9.03707 11.7086 8.66847 11.34 8.21378 11.34C7.75909 11.34 7.3905 11.7086 7.3905 12.1633Z" fill="white" stroke="white" stroke-width="0.2"/>
</svg>
