<svg width="17" height="17" viewBox="0 0 17 17" fill="none" xmlns="http://www.w3.org/2000/svg">
<g id="Vector">
<path d="M16.2749 0.523438H4.23979C4.15112 0.523437 4.06609 0.558659 4.00339 0.621355C3.9407 0.68405 3.90548 0.769083 3.90548 0.857747V3.19792H0.896688C0.808023 3.19792 0.72299 3.23314 0.660295 3.29583C0.5976 3.35853 0.562378 3.44356 0.562378 3.53223V14.5645C0.562378 15.0964 0.773709 15.6066 1.14988 15.9828C1.52605 16.359 2.03625 16.5703 2.56824 16.5703H14.6034C15.1354 16.5703 15.6456 16.359 16.0218 15.9828C16.3979 15.6066 16.6093 15.0964 16.6093 14.5645V0.857747C16.6093 0.769083 16.574 0.68405 16.5113 0.621355C16.4486 0.558659 16.3636 0.523437 16.2749 0.523438ZM1.231 14.5645V3.86654H12.5975V14.5645C12.5986 15.0584 12.782 15.5345 13.1124 15.9017H2.56824C2.21358 15.9017 1.87345 15.7608 1.62267 15.51C1.37189 15.2592 1.231 14.9191 1.231 14.5645ZM15.9406 14.5645C15.9406 14.9191 15.7997 15.2592 15.549 15.51C15.2982 15.7608 14.9581 15.9017 14.6034 15.9017C14.2487 15.9017 13.9086 15.7608 13.6578 15.51C13.407 15.2592 13.2662 14.9191 13.2662 14.5645V3.53223C13.2662 3.44356 13.2309 3.35853 13.1682 3.29583C13.1055 3.23314 13.0205 3.19792 12.9318 3.19792H4.5741V1.19206H15.9406V14.5645Z" fill="white"/>
<path d="M2.90255 8.54693H5.57703C5.66569 8.54693 5.75072 8.51171 5.81342 8.44901C5.87611 8.38632 5.91134 8.30128 5.91134 8.21262V5.53814C5.91134 5.44947 5.87611 5.36444 5.81342 5.30175C5.75072 5.23905 5.66569 5.20383 5.57703 5.20383H2.90255C2.81388 5.20383 2.72885 5.23905 2.66615 5.30175C2.60346 5.36444 2.56824 5.44947 2.56824 5.53814V8.21262C2.56824 8.30128 2.60346 8.38632 2.66615 8.44901C2.72885 8.51171 2.81388 8.54693 2.90255 8.54693ZM3.23686 5.87245H5.24272V7.87831H3.23686V5.87245Z" fill="white"/>
<path d="M10.926 5.20383H7.58288C7.49422 5.20383 7.40918 5.23905 7.34649 5.30175C7.28379 5.36444 7.24857 5.44947 7.24857 5.53814C7.24857 5.6268 7.28379 5.71184 7.34649 5.77453C7.40918 5.83723 7.49422 5.87245 7.58288 5.87245H10.926C11.0146 5.87245 11.0997 5.83723 11.1624 5.77453C11.2251 5.71184 11.2603 5.6268 11.2603 5.53814C11.2603 5.44947 11.2251 5.36444 11.1624 5.30175C11.0997 5.23905 11.0146 5.20383 10.926 5.20383Z" fill="white"/>
<path d="M2.90255 10.5527H6.24565C6.33431 10.5527 6.41934 10.5175 6.48204 10.4548C6.54473 10.3921 6.57996 10.307 6.57996 10.2184C6.57996 10.1297 6.54473 10.0447 6.48204 9.98198C6.41934 9.91928 6.33431 9.88406 6.24565 9.88406H2.90255C2.81388 9.88406 2.72885 9.91928 2.66615 9.98198C2.60346 10.0447 2.56824 10.1297 2.56824 10.2184C2.56824 10.307 2.60346 10.3921 2.66615 10.4548C2.72885 10.5175 2.81388 10.5527 2.90255 10.5527Z" fill="white"/>
<path d="M2.90255 12.5585H6.91427C7.00293 12.5585 7.08796 12.5233 7.15066 12.4606C7.21335 12.3979 7.24858 12.3129 7.24858 12.2242C7.24858 12.1356 7.21335 12.0505 7.15066 11.9878C7.08796 11.9251 7.00293 11.8899 6.91427 11.8899H2.90255C2.81388 11.8899 2.72885 11.9251 2.66615 11.9878C2.60346 12.0505 2.56824 12.1356 2.56824 12.2242C2.56824 12.3129 2.60346 12.3979 2.66615 12.4606C2.72885 12.5233 2.81388 12.5585 2.90255 12.5585Z" fill="white"/>
<path d="M4.90841 13.8958H2.90255C2.81388 13.8958 2.72885 13.931 2.66615 13.9937C2.60346 14.0564 2.56824 14.1414 2.56824 14.2301C2.56824 14.3188 2.60346 14.4038 2.66615 14.4665C2.72885 14.5292 2.81388 14.5644 2.90255 14.5644H4.90841C4.99707 14.5644 5.0821 14.5292 5.1448 14.4665C5.20749 14.4038 5.24272 14.3188 5.24272 14.2301C5.24272 14.1414 5.20749 14.0564 5.1448 13.9937C5.0821 13.931 4.99707 13.8958 4.90841 13.8958Z" fill="white"/>
<path d="M10.926 9.88406H8.25151C8.16285 9.88406 8.07781 9.91928 8.01512 9.98198C7.95242 10.0447 7.9172 10.1297 7.9172 10.2184C7.9172 10.307 7.95242 10.3921 8.01512 10.4548C8.07781 10.5175 8.16285 10.5527 8.25151 10.5527H10.926C11.0147 10.5527 11.0997 10.5175 11.1624 10.4548C11.2251 10.3921 11.2603 10.307 11.2603 10.2184C11.2603 10.1297 11.2251 10.0447 11.1624 9.98198C11.0997 9.91928 11.0147 9.88406 10.926 9.88406Z" fill="white"/>
<path d="M10.926 11.8899H8.92013C8.83146 11.8899 8.74643 11.9251 8.68373 11.9878C8.62104 12.0505 8.58582 12.1356 8.58582 12.2242C8.58582 12.3129 8.62104 12.3979 8.68373 12.4606C8.74643 12.5233 8.83146 12.5585 8.92013 12.5585H10.926C11.0147 12.5585 11.0997 12.5233 11.1624 12.4606C11.2251 12.3979 11.2603 12.3129 11.2603 12.2242C11.2603 12.1356 11.2251 12.0505 11.1624 11.9878C11.0997 11.9251 11.0147 11.8899 10.926 11.8899Z" fill="white"/>
<path d="M10.926 13.8958H6.91427C6.8256 13.8958 6.74057 13.931 6.67787 13.9937C6.61518 14.0564 6.57996 14.1414 6.57996 14.2301C6.57996 14.3188 6.61518 14.4038 6.67787 14.4665C6.74057 14.5292 6.8256 14.5644 6.91427 14.5644H10.926C11.0147 14.5644 11.0997 14.5292 11.1624 14.4665C11.2251 14.4038 11.2603 14.3188 11.2603 14.2301C11.2603 14.1414 11.2251 14.0564 11.1624 13.9937C11.0997 13.931 11.0147 13.8958 10.926 13.8958Z" fill="white"/>
</g>
</svg>
