<svg width="18" height="18" viewBox="0 0 18 18" fill="none" xmlns="http://www.w3.org/2000/svg">
<path id="Vector" d="M17.4799 8.75893C17.4799 7.44552 17.4799 6.72115 17.1323 6.03924C16.8245 5.43692 16.3442 4.95401 15.7419 4.64888C15.0919 4.31721 14.6328 4.30128 13.2345 4.30128V4.03595C13.2345 3.21871 13.2345 2.76764 13.0965 2.31657C12.7861 1.29768 11.9927 0.504326 10.9738 0.193883C10.544 0.0638684 9.96822 0.0559082 8.98913 0.0559082C8.01004 0.0559082 7.43427 0.061215 7.00442 0.193883C5.98553 0.504326 5.19218 1.29768 4.88173 2.31657C4.74376 2.76764 4.74376 3.21871 4.74376 4.03595V4.30128H4.69069C3.66119 4.30128 2.91825 4.30129 2.23633 4.64888C1.63402 4.95667 1.15111 5.43692 0.843318 6.03924C0.495727 6.72115 0.495728 7.44286 0.495728 8.75893V12.5798C0.495728 13.8932 0.495727 14.6175 0.843318 15.2995C1.15111 15.9018 1.63137 16.3847 2.23368 16.6898C2.91559 17.0374 3.63731 17.0374 4.95337 17.0374H13.0196C14.333 17.0374 15.0574 17.0374 15.7393 16.6898C16.3416 16.382 16.8245 15.9018 17.1296 15.2995C17.4772 14.6175 17.4772 13.8958 17.4772 12.5798V8.75893H17.4799ZM6.86645 4.03595C6.86645 3.46282 6.86645 3.08339 6.91155 2.93215C7.01503 2.59252 7.27772 2.32718 7.61204 2.22636C7.80043 2.1786 8.485 2.1786 8.98648 2.1786C9.48797 2.1786 10.1752 2.1786 10.3556 2.2237C10.6952 2.32718 10.9606 2.58987 11.0641 2.93215C11.1092 3.08339 11.1092 3.46282 11.1092 4.03595V4.30128H6.86379V4.03595H6.86645ZM15.3572 12.5798C15.3572 13.5005 15.3572 14.1081 15.2405 14.3363C15.1396 14.5353 14.9751 14.6998 14.7761 14.8006C14.5479 14.9174 13.9403 14.9174 13.0196 14.9174H4.95337C4.03266 14.9174 3.42504 14.9174 3.19685 14.8006C2.99519 14.6972 2.83599 14.5379 2.73251 14.3363C2.61576 14.1081 2.61576 13.5005 2.61576 12.5798V8.75893C2.61576 7.83821 2.61576 7.23059 2.73251 7.00241C2.83599 6.80075 2.99519 6.64155 3.19685 6.53807C3.42504 6.42132 3.98224 6.42132 4.68804 6.42132H13.0196C14.4046 6.42132 14.5692 6.43193 14.7761 6.53807C14.9751 6.6389 15.1396 6.8034 15.2405 7.00241C15.3572 7.23059 15.3572 7.83821 15.3572 8.75893V12.5798Z" fill="white"/>
</svg>
